<svg id="Capa_1" enable-background="new 0 0 512 512" height="512" viewBox="0 0 512 512" width="512" xmlns="http://www.w3.org/2000/svg"><g><path d="m493.52 340.153-214.7-132.971v-10.325c27.037-5.619 45.361-30.793 45.38-59.019.022-33.266-27.907-58.14-61.05-58.14-22.658 0-43.432 13.311-52.923 33.913-3.18 6.905-2.616 14.87 1.506 21.306 9.307 14.532 31.966 13.219 39.439-2.63 2.174-4.61 6.876-7.589 11.978-7.589 8.193 0 16.06 4.817 16.05 13.14-.009 7.478-3.567 15.19-11.891 15.19-18.466 0-33.489 15.015-33.489 33.47v20.283l-32.396 20.065c-3.521 2.181-4.608 6.804-2.427 10.325 2.181 3.522 6.806 4.607 10.325 2.427l35.947-22.264c2.207-1.367 3.551-3.779 3.551-6.376v-24.46c0-10.185 8.294-18.47 18.489-18.47 15.809 0 26.908-14.158 26.891-30.19-.018-16.776-14.417-28.14-31.05-28.14-10.879 0-20.906 6.355-25.539 16.18-2.537 5.38-10.075 5.904-13.247.95-.648-1.013-1.997-3.717-.513-6.941 7.05-15.301 22.475-25.188 39.299-25.188 24.655 0 46.139 18.567 46.05 43.14-.082 22.625-15.24 43.188-38.481 45.055-3.897.313-6.898 3.566-6.898 7.476v20.99c0 2.597 1.344 5.009 3.551 6.376l218.251 135.171c7.124 4.413 11.378 12.051 11.378 20.434 0 13.256-10.78 24.04-24.03 24.04h-73.506v-15.05h73.506c4.957 0 8.99-4.033 8.99-8.99 0-3.148-1.605-6.011-4.261-7.636l-217.75-134.87c-2.42-1.499-5.479-1.499-7.898 0l-217.717 134.846c-2.69 1.646-4.295 4.509-4.295 7.657 0 4.957 4.033 8.99 8.99 8.99h73.506v15.05h-73.506c-13.25 0-24.03-10.784-24.03-24.04 0-8.383 4.254-16.021 11.379-20.434l159.874-99.018c3.521-2.181 4.607-6.804 2.427-10.325-2.181-3.521-6.802-4.607-10.325-2.427l-159.875 99.019c-11.571 7.166-18.48 19.572-18.48 33.185 0 21.526 17.509 39.04 39.03 39.04h73.506v4.423c0 8.547 6.953 15.5 15.5 15.5h30.928c8.547 0 15.5-6.953 15.5-15.5v-4.423h99.225c4.143 0 7.5-3.357 7.5-7.5s-3.357-7.5-7.5-7.5h-99.225v-15.05h163.072v15.05h-33.848c-4.143 0-7.5 3.357-7.5 7.5s3.357 7.5 7.5 7.5h33.848v4.423c0 8.547 6.953 15.5 15.5 15.5h30.928c8.547 0 15.5-6.953 15.5-15.5v-4.423h73.506c21.522 0 39.03-17.514 39.03-39.04 0-13.613-6.909-26.019-18.48-33.185zm-334.056 76.648c0 .275-.225.5-.5.5h-30.928c-.275 0-.5-.225-.5-.5 0-16.178 0-39.433 0-55.201 0-.275.225-.5.5-.5h30.928c.275 0 .5.225.5.5zm225 0c0 .275-.225.5-.5.5h-30.928c-.275 0-.5-.225-.5-.5 0-16.171 0-39.285 0-55.201 0-.275.225-.5.5-.5h30.928c.275 0 .5.225.5.5zm-.5-70.701h-30.928c-8.547 0-15.5 6.953-15.5 15.5v5.728h-163.072v-5.728c0-8.547-6.953-15.5-15.5-15.5h-30.928c-8.547 0-15.5 6.953-15.5 15.5v5.728h-52.374l195.838-121.297 195.838 121.298h-52.374v-5.729c0-8.547-6.953-15.5-15.5-15.5z"/></g></svg>