<svg id="Capa_1" enable-background="new 0 0 512 512" height="512" viewBox="0 0 512 512" width="512" xmlns="http://www.w3.org/2000/svg"><g><path d="m466 512c8.284 0 15-6.716 15-15v-212c0-8.284-6.716-15-15-15s-15 6.716-15 15v45h-32.58c-6.192-17.458-22.865-30-42.42-30h-165c0-33.084-26.916-60-60-60s-60 26.916-60 60c0 10.925 2.949 21.167 8.072 30h-38.072v-105c0-8.284-6.716-15-15-15s-15 6.716-15 15v272c0 8.284 6.716 15 15 15s15-6.716 15-15v-46h390v46c0 8.284 6.716 15 15 15zm-90-182c8.271 0 15 6.729 15 15v76h-180c0-11.256 0-77.189 0-91zm-255-30c0-16.542 13.458-30 30-30s30 13.458 30 30v30h-30c-16.542 0-30-13.458-30-30zm-60 60h120v61h-120zm360 61v-61h30v61z"/><path d="m136 30c-8.284 0-15 6.716-15 15v47.995l-83.719 59.799c-6.741 4.815-8.302 14.184-3.487 20.925 4.814 6.74 14.183 8.302 20.925 3.487l201.281-143.772 201.281 143.772c6.712 4.794 16.088 3.283 20.925-3.487 4.815-6.741 3.254-16.11-3.487-20.925l-210-150c-5.216-3.726-12.222-3.726-17.438 0l-96.281 68.773v-26.567c0-8.284-6.716-15-15-15z"/></g></svg>