<svg id="Capa_1" enable-background="new 0 0 511.991 511.991" height="512" viewBox="0 0 511.991 511.991" width="512" xmlns="http://www.w3.org/2000/svg"><g><path d="m510.967 156.502c-.077-2.677-1.576-5.11-3.932-6.383-7.369-3.982-14.241-9.398-20.424-16.099-2.809-3.043-7.553-3.235-10.598-.425-3.044 2.809-3.234 7.554-.425 10.598 6.243 6.765 13.125 12.447 20.502 16.933 2.421 89.623-.043 180.36-7.332 269.894-86.334 11.986-173.755 13.749-260.151 5.266 1.816-1.994 3.714-3.942 5.695-5.839 25.918-24.819 62.999-38.553 101.716-37.663 2.11.062 4.1-.776 5.553-2.274 1.454-1.498 2.217-3.533 2.108-5.618-1.142-21.692-3.866-43.712-8.098-65.449-.653-3.353-3.488-5.841-6.896-6.052-50.263-3.125-100.868-4.725-151.485-4.832-1.58-48.958-1.726-98.495-.401-147.432 17.713-10.753 32.095-27.95 42.791-51.184 11.171-24.267 18.004-54.593 20.337-90.223 10.419-.916 20.915-1.688 31.348-2.309.333 38.001 11.715 72.827 30.457 92.26 10.235 10.612 22.228 16.244 34.733 16.285 12.46-.041 24.457-5.674 34.694-16.289 18.74-19.432 30.123-54.256 30.456-92.256 10.433.62 20.929 1.393 31.348 2.309 2.628 40.129 10.922 73.398 24.683 98.961 1.963 3.647 6.51 5.012 10.159 3.049 3.647-1.963 5.012-6.512 3.049-10.159-13.433-24.953-21.266-58.297-23.283-99.105-.184-3.725-3.077-6.749-6.79-7.097-15.377-1.442-30.979-2.581-46.371-3.382-2.092-.111-4.144.666-5.643 2.136-1.499 1.471-2.312 3.502-2.244 5.601 1.225 37.223-8.799 71.529-26.162 89.532-7.461 7.736-15.519 11.673-23.897 11.701-8.424-.028-16.478-3.963-23.937-11.698-17.363-18.003-27.388-52.312-26.162-89.536.069-2.099-.745-4.13-2.244-5.601-1.499-1.47-3.547-2.24-5.643-2.136-15.392.802-30.994 1.94-46.371 3.382-3.713.349-6.606 3.373-6.79 7.098-3.447 69.882-24.567 118.769-59.469 137.654-2.354 1.273-3.851 3.705-3.928 6.38-1.453 50.449-1.349 101.565.272 152.075-49.184.186-98.348 1.779-147.19 4.815-3.409.211-6.244 2.7-6.896 6.052-4.229 21.737-6.954 43.758-8.096 65.451-.109 2.084.654 4.121 2.108 5.618 1.454 1.498 3.454 2.328 5.554 2.274 19.413-.445 38.223 2.675 55.892 9.277 3.883 1.451 8.201-.521 9.651-4.4 1.45-3.88-.52-8.201-4.4-9.651-16.977-6.344-34.884-9.771-53.34-10.218 1.167-16.538 3.274-33.228 6.284-49.786 99.628-5.957 200.542-5.957 300.171 0 3.011 16.562 5.117 33.253 6.284 49.792-39.71 1.011-77.349 16.019-104.287 41.814-21.886 20.958-35.016 47.481-37.462 75.356-9.727.059-19.517.059-29.246 0-3.268-36.775-25.379-71.159-60.248-93.082-3.506-2.204-8.136-1.15-10.341 2.357s-1.149 8.137 2.357 10.341c32.877 20.671 52.927 53.562 53.634 87.984.083 4.055 3.375 7.31 7.431 7.346 7.23.065 14.511.098 21.792.098s14.562-.033 21.792-.098c4.056-.036 7.348-3.291 7.431-7.346.377-18.4 6.185-36.369 16.688-52.332 39.355 4.202 78.918 6.322 118.528 6.322 53.608-.001 107.289-3.847 160.528-11.53 3.456-.499 6.111-3.317 6.402-6.797 7.832-93.414 10.441-188.202 7.754-281.73z"/></g></svg>