<svg id="Capa_1" enable-background="new 0 0 511.972 511.972" height="512" viewBox="0 0 511.972 511.972" width="512" xmlns="http://www.w3.org/2000/svg"><g><path d="m480.969 226c0-8.291-6.709-15-15-15h-60c-8.291 0-15 6.709-15 15s6.709 15 15 15h60c8.291 0 15-6.709 15-15z"/><path d="m255.969 91c8.291 0 15-6.709 15-15v-61c0-8.291-6.709-15-15-15s-15 6.709-15 15v61c0 8.291 6.709 15 15 15z"/><path d="m133.391 444.789 42.429-42.429-84.851-84.851-42.422 42.422c-23.394 23.394-23.394 61.465 0 84.858 23.359 23.388 61.465 23.408 84.844 0z"/><path d="m305.349 328.114 85.547-17.109c5.42-1.084 9.814-5.068 11.411-10.356 1.597-5.303.161-11.045-3.75-14.956l-190.913-190.928c-3.911-3.911-9.609-5.376-14.956-3.75-5.288 1.597-9.272 5.991-10.356 11.411l-17.109 85.562c-8.047 40.252-26.889 76.895-53.82 107.532l86.407 86.407c30.63-26.922 67.285-45.751 107.539-53.813z"/><path d="m251.066 498.816c17.549-17.549 17.549-46.084 0-63.633l-32.042-32.049c-3.798 3.274-7.811 6.255-11.38 9.824l-53.038 53.038 32.827 32.82c17.533 17.533 46.084 17.549 63.633 0z"/><path d="m464.372 68.63c-10.299-10.299-23.374-15.407-38.086-14.947.46-14.712-4.648-27.787-14.947-38.086-20.817-20.817-53.453-20.793-74.3.054-22.045 22.045-18.028 54.402-12.468 99.185.964 7.762 1.96 15.787 2.917 24.394.387 3.486 1.957 6.606 4.301 8.95s5.464 3.914 8.95 4.301c8.607.957 16.632 1.953 24.394 2.917 44.783 5.56 77.14 9.578 99.185-12.468 20.848-20.847 20.871-53.483.054-74.3z"/></g></svg>