<svg id="Capa_1" enable-background="new 0 0 512 512" height="512" viewBox="0 0 512 512" width="512" xmlns="http://www.w3.org/2000/svg"><g><path d="m15 301c24.853 0 45-20.147 45-45v-151c0-24.853-20.147-45-45-45-8.284 0-15 6.716-15 15v211c0 8.284 6.716 15 15 15z"/><path d="m448.524 336.151c-5.537-8.438-19.512-8.438-25.049 0-5.83 8.833-12.935 18.193-20.479 28.11-23.788 31.377-41.996 54.011-41.996 74.738 0 41.353 33.647 73.001 75 73.001s76-31.648 76-73.001c0-20.728-19.208-43.361-43.026-74.753-7.515-9.902-14.62-19.262-20.45-28.095z"/><path d="m241 271c25.693 0 49.614-10.84 66.738-30h53.262c8.276 0 15 6.724 15 15v30c0 8.291 6.709 15 15 15h90c8.291 0 15-6.709 15-15v-30c0-74.443-60.557-136-135-136h-53.262c-13.718-15.35-31.877-25.042-51.738-28.416v-31.584h75c8.291 0 15-6.709 15-15s-6.709-15-15-15h-75v-15c0-8.291-6.709-15-15-15s-15 6.709-15 15v15h-75c-8.291 0-15 6.709-15 15s6.709 15 15 15h75v31.584c-19.861 3.375-38.02 13.066-51.738 28.416h-84.262v121h84.262c17.124 19.16 41.045 30 66.738 30z"/></g></svg>