<svg id="Capa_1" enable-background="new 0 0 512 512" height="512" viewBox="0 0 512 512" width="512" xmlns="http://www.w3.org/2000/svg"><g><circle cx="121" cy="195" r="45"/><path d="m10.4 299.282c69.771 22.456 66.127 70.145 86.752 161.155 2.856 12.627 5.874 25.972 9.258 40.063 1.626 6.739 7.661 11.5 14.59 11.5s12.964-4.761 14.59-11.499c3.384-14.092 6.401-27.437 9.258-40.063 20.625-91.011 15.981-138.699 85.752-161.155 5.229-1.685 9.126-6.094 10.137-11.499 1.025-5.405-.996-10.928-5.259-14.399-34.722-28.356-77.243-61.161-114.478 5.054-35.16-62.525-73.698-39.172-115.478-5.054-4.263 3.472-6.284 8.994-5.259 14.399 1.011 5.404 4.908 9.814 10.137 11.498z"/><path d="m293.5 0c-14.565 0-27.422 5.634-37.5 16.362-10.078-10.728-22.935-16.362-37.5-16.362-29.439 0-52.5 23.094-52.5 52.576 0 31.177 25.721 51.216 61.318 78.951 6.17 4.807 12.549 9.777 19.312 15.187 2.739 2.191 6.055 3.287 9.37 3.287s6.631-1.096 9.37-3.287c6.763-5.41 13.142-10.38 19.312-15.187 35.597-27.735 61.318-47.774 61.318-78.951 0-29.482-23.061-52.576-52.5-52.576z"/><circle cx="391" cy="195" r="45"/><path d="m391 278.438c-35.16-62.525-72.698-39.172-114.478-5.054-4.263 3.472-6.284 8.994-5.259 14.399 1.011 5.405 4.907 9.814 10.137 11.499 69.771 22.456 65.127 70.145 85.752 161.155 2.856 12.627 5.874 25.972 9.258 40.063 1.626 6.739 7.661 11.5 14.59 11.5s12.964-4.761 14.59-11.499c3.384-14.092 6.401-27.437 9.258-40.063 20.625-91.011 16.981-138.699 86.752-161.155 5.229-1.685 9.126-6.094 10.137-11.499 1.025-5.405-.996-10.928-5.259-14.399-34.723-28.357-78.244-61.162-115.478 5.053z"/></g></svg>