<svg id="Capa_1" enable-background="new 0 0 512 512" height="512" viewBox="0 0 512 512" width="512" xmlns="http://www.w3.org/2000/svg"><g><g><path d="m293.5 323.5c-16.315 0-22.402 17.063-23.146 19.359-1.836 6.441-7.651 10.886-14.354 10.886s-12.518-4.445-14.354-10.886c-.744-2.295-6.831-19.359-23.146-19.359-14.771 0-22.5 11.357-22.5 22.576 0 15.785 17.062 29.813 49.757 55.285 3.341 2.603 6.743 5.254 10.243 8.003 3.5-2.749 6.902-5.4 10.243-8.003 32.695-25.473 49.757-39.5 49.757-55.285 0-11.219-7.729-22.576-22.5-22.576z"/><path d="m256 211c-90.981 0-165 74.019-165 165v121c0 8.291 6.709 15 15 15h300c8.291 0 15-6.709 15-15v-121c0-90.981-74.019-165-165-165zm28.682 214.026c-6.17 4.807-12.549 9.777-19.312 15.187-2.739 2.191-6.055 3.287-9.37 3.287s-6.631-1.096-9.37-3.287c-6.763-5.41-13.142-10.38-19.312-15.187-35.597-27.734-61.318-47.773-61.318-78.95 0-29.482 23.061-52.576 52.5-52.576 14.565 0 27.422 5.634 37.5 16.362 10.078-10.728 22.935-16.362 37.5-16.362 29.439 0 52.5 23.094 52.5 52.576 0 31.177-25.721 51.216-61.318 78.95z"/></g><path d="m361 106c0-57.891-47.109-106-105-106s-105 48.109-105 106 47.109 105 105 105 105-47.109 105-105zm-105 45c-24.814 0-45-20.186-45-45 0-8.291 6.709-15 15-15s15 6.709 15 15c0 8.276 6.724 15 15 15s15-6.724 15-15c0-8.291 6.709-15 15-15s15 6.709 15 15c0 24.814-20.186 45-45 45z"/></g></svg>