<svg id="Capa_1" enable-background="new 0 0 512 512" height="512" viewBox="0 0 512 512" width="512" xmlns="http://www.w3.org/2000/svg"><g><path d="m241 419.422v92.578h30v-92.578c0-17.417-5.347-34.556-15-48.911-9.653 14.355-15 31.494-15 48.911z"/><path d="m421 437.383v-79.578l10.254 3.419c7.905 2.635 16.364-1.661 18.97-9.478 2.622-7.866-1.626-16.362-9.478-18.97l-180-60c-3.076-1.025-6.416-1.025-9.492 0l-180 60c-7.852 2.607-12.1 11.104-9.478 18.97 2.622 7.852 11.06 12.158 18.97 9.478l10.254-3.419v79.578c18.104 13.705 30 35.213 30 59.617 0 5.284-1.082 10.285-2.763 15h92.763v-92.578c0-30.908 12.539-61.172 34.395-83.027 5.859-5.859 15.352-5.859 21.211 0 21.855 21.855 34.394 52.119 34.394 83.027v92.578h92.763c-1.681-4.715-2.763-9.716-2.763-15 0-24.404 11.896-45.912 30-59.617zm-240-30.383c0 8.291-6.709 15-15 15s-15-6.709-15-15v-30c0-8.291 6.709-15 15-15s15 6.709 15 15zm180 0c0 8.291-6.709 15-15 15s-15-6.709-15-15v-30c0-8.291 6.709-15 15-15s15 6.709 15 15z"/><path d="m15 512h61c8.284 0 15-6.716 15-15 0-24.853-20.147-45-45-45s-46 20.147-46 45c0 8.284 6.716 15 15 15z"/><path d="m466 452c-24.853 0-45 20.147-45 45 0 8.284 6.716 15 15 15h61c8.284 0 15-6.716 15-15 0-24.853-21.147-45-46-45z"/><path d="m155.395 206.605c5.859 5.859 15.352 5.859 21.211 0l4.395-4.395v62.357l60.762-20.253c4.6-1.523 9.39-2.3 14.238-2.3s9.639.776 14.238 2.3l60.761 20.254v-62.357l4.395 4.395c5.859 5.859 15.352 5.859 21.211 0s5.859-15.352 0-21.211l-85.606-86.606v-38.789h15c8.291 0 15-6.709 15-15s-6.709-15-15-15h-15v-15c0-8.291-6.709-15-15-15s-15 6.709-15 15v15h-15c-8.291 0-15 6.709-15 15s6.709 15 15 15h15v38.789l-85.605 86.605c-5.86 5.86-5.86 15.352 0 21.211zm85.605-40.605c0-8.291 6.709-15 15-15s15 6.709 15 15v30c0 8.291-6.709 15-15 15s-15-6.709-15-15z"/></g></svg>