<svg id="Capa_1" enable-background="new 0 0 512 512" height="512" viewBox="0 0 512 512" width="512" xmlns="http://www.w3.org/2000/svg"><g><path d="m445.6 337.4c-42.82-42.82-99.5-66.4-159.6-66.4h-15v66.13c6.85-3.39 14.41-5.13 22.5-5.13 29.44 0 52.5 23.09 52.5 52.58 0 31.17-25.72 51.21-61.32 78.95-6.17 4.8-12.55 9.77-19.31 15.18-2.74 2.19-6.05 3.29-9.37 3.29s-6.63-1.1-9.37-3.29c-6.76-5.41-13.14-10.38-19.31-15.18-35.6-27.74-61.32-47.78-61.32-78.95 0-29.49 23.06-52.58 52.5-52.58 8.09 0 15.65 1.74 22.5 5.13v-66.13h-15c-60.1 0-116.78 23.58-159.6 66.4s-66.4 99.5-66.4 159.6c0 3.98 1.58 7.79 4.39 10.61 2.82 2.81 6.63 4.39 10.61 4.39h482c8.28 0 15-6.72 15-15 0-60.1-23.58-116.78-66.4-159.6zm-227.1 24.6c-14.77 0-22.5 11.36-22.5 22.58 0 15.78 17.06 29.81 49.76 55.28 3.34 2.6 6.74 5.25 10.24 8 3.5-2.75 6.9-5.4 10.24-8 32.7-25.47 49.76-39.5 49.76-55.28 0-11.22-7.73-22.58-22.5-22.58-16.32 0-22.4 17.06-23.15 19.36v.02c-.03.08-.06.16-.08.23-1.92 6.3-7.66 10.63-14.27 10.63s-12.35-4.33-14.27-10.63c-.02-.07-.05-.15-.08-.23 0-.01 0-.01 0-.02-.75-2.3-6.83-19.36-23.15-19.36z"/><path d="m325.86 138.26c-22.81 5.21-42.3 19.1-54.86 38v-34.02c4.71-3.72 9.25-7.26 13.68-10.71 35.6-27.74 61.32-47.78 61.32-78.95 0-29.49-23.06-52.58-52.5-52.58-14.57 0-27.42 5.63-37.5 16.36-10.08-10.73-22.93-16.36-37.5-16.36-29.44 0-52.5 23.09-52.5 52.58 0 31.17 25.72 51.21 61.32 78.95 4.43 3.45 8.97 6.99 13.68 10.71v79.02c-12.56-18.9-32.05-32.79-54.86-38-10.67-2.44-20.32 7.21-17.88 17.88 8.05 35.23 36.78 62.57 72.74 68.6v1.26h30v-46.26c35.96-6.03 64.69-33.37 72.74-68.6 2.44-10.67-7.21-20.32-17.88-17.88z"/></g></svg>