<svg id="Capa_1" enable-background="new 0 0 512 512" height="512" viewBox="0 0 512 512" width="512" xmlns="http://www.w3.org/2000/svg"><g><g><path d="m203 323.5c-16.315 0-22.402 17.063-23.146 19.359-1.836 6.441-7.651 10.886-14.354 10.886s-12.518-4.445-14.354-10.886c-.744-2.295-6.831-19.359-23.146-19.359-14.771 0-22.5 11.357-22.5 22.576 0 15.785 17.062 29.813 49.757 55.285 3.341 2.603 6.743 5.254 10.243 8.003 3.5-2.749 6.902-5.4 10.243-8.003 32.695-25.473 49.757-39.5 49.757-55.285 0-11.219-7.728-22.576-22.5-22.576z"/><path d="m497 211h-49.893c16.617 67.773 17.498 108.973 4.259 144.521-3.375 9.069-9.613 16.485-17.38 21.639l16.384 54.518c2.099 7.028-3.739 19.322-14.37 19.322h-60c-3.984 0-7.793-1.582-10.605-4.395l-19.395-19.394-19.395 19.395c-4.325 4.325-10.814 5.561-16.348 3.252-5.61-2.315-9.257-7.793-9.257-13.858v-23.789l-34.395 34.395c-5.859 5.859-15.352 5.859-21.211 0s-5.859-15.352 0-21.211l60-60c4.292-4.307 10.737-5.596 16.348-3.252 5.61 2.314 9.258 7.793 9.258 13.857v23.789l4.395-4.395c5.859-5.859 15.352-5.859 21.211 0l25.605 25.606h33.613l-11.085-36.881c-7.925-.791-15.542-3.186-22.073-7.943-36.626-26.732-60.898-71.164-90.179-165.176h-277.487c-8.291 0-15 6.709-15 15v271c0 8.291 6.709 15 15 15h482c8.291 0 15-6.709 15-15v-271c0-8.291-6.709-15-15-15zm-302.818 214.026c-6.17 4.807-12.549 9.777-19.312 15.187-2.739 2.191-6.055 3.287-9.37 3.287s-6.631-1.096-9.37-3.287c-6.763-5.41-13.142-10.38-19.312-15.187-35.597-27.734-61.318-47.773-61.318-78.95 0-29.482 23.061-52.576 52.5-52.576 14.565 0 27.422 5.634 37.5 16.362 10.078-10.728 22.935-16.362 37.5-16.362 29.439 0 52.5 23.094 52.5 52.576 0 31.177-25.721 51.216-61.318 78.95z"/></g><path d="m349.842 20.462c-7.119-15.571-25.693-23.979-42.07-19.058-17.021 5.098-27.363 21.548-24.609 39.097 7.119 45.557 19.614 101.21 33.442 147.206 1.758 5.852 3.419 10.897 5.127 16.364l85.576-25.728c-1.589-5.502-2.986-10.624-4.746-16.476-13.829-45.981-33.546-99.466-52.72-141.405z"/><path d="m400.349 351.931c7.949 5.806 19.411 2.518 22.91-6.885 11.646-31.28 9.661-70.036-7.976-137.761l-84.247 25.325c22.629 66.213 42.346 99.637 69.313 119.321z"/></g></svg>