<svg id="Capa_1" enable-background="new 0 0 512 512" height="512" viewBox="0 0 512 512" width="512" xmlns="http://www.w3.org/2000/svg"><g><path d="m293.5 0c-14.565 0-27.422 5.634-37.5 16.362-10.078-10.728-22.935-16.362-37.5-16.362-29.439 0-52.5 23.094-52.5 52.576 0 31.177 25.721 51.216 61.318 78.951 6.17 4.807 12.549 9.777 19.312 15.187 2.739 2.191 6.055 3.287 9.37 3.287s6.631-1.096 9.37-3.287c6.763-5.41 13.142-10.38 19.312-15.187 35.597-27.735 61.318-47.774 61.318-78.951 0-29.482-23.061-52.576-52.5-52.576z"/><path d="m162.074 404.359c-6.724 10.122-6.724 23.188-1.23 31.025l29.458 67.68c2.402 5.435 7.778 8.936 13.726 8.936h102.7c5.684 0 10.869-3.208 13.418-8.291l42.422-85.858c7.397-14.703 1.52-32.823-13.403-40.269l-63.165-46.582v-45c0-16.538-13.462-30-30-30s-30 13.462-30 30v120c0 8.284-6.716 15-15 15s-15-6.716-15-15v-39.943z"/><path d="m436 121h-92.181c-11.462 11.411-25.217 22.13-40.697 34.19-6.081 4.737-12.365 9.633-19.012 14.95-7.948 6.358-17.931 9.86-28.11 9.86s-20.162-3.502-28.111-9.861c-6.646-5.316-12.93-10.212-19.008-14.947-15.482-12.062-29.237-22.782-40.7-34.192h-92.181c-8.284 0-15 6.714-15 15v180c0 8.284 6.716 15 15 15h110.971l9.029-10.195v-34.805c0-33.091 26.909-60 60-60s60 26.909 60 60v29.854l20.537 15.146h99.463c8.284 0 15-6.716 15-15v-180c0-8.286-6.716-15-15-15zm-45 120c-8.284 0-15-6.716-15-15 0-8.286 6.716-15 15-15s15 6.714 15 15c0 8.284-6.716 15-15 15z"/></g></svg>