<svg id="Capa_1" enable-background="new 0 0 512 512" height="512" viewBox="0 0 512 512" width="512" xmlns="http://www.w3.org/2000/svg"><path d="m154.779 223.249c18.001-29.844 25.889-63.53 23.247-97.463l-14.019 2.878c-88.287 18.133-150.053 92.851-155.287 178.863l37.91-7.784c45-9.243 84.419-37.119 108.149-76.494z"/><path d="m495.159 352.59c-9.879-9.88-22.803-15.458-36.391-15.708-14.095-.256-27.555 5.301-37.909 15.654-8.421 8.421-13.366 18.698-14.641 30.208-46.702-30.521-101.853-89.185-121.885-131.328l.149-.277c8.188-18.593 14.343-38.225 17.206-58.857l93.882-19.277c46.128-9.463 82.339-43.608 94.512-89.106.002-.005-.002-.009 0-.015l8.657-32.402c2.139-7.998-2.607-16.216-10.62-18.354-7.881-2.095-16.201 2.607-18.354 10.62l-6.262 23.439-226.029 46.397-6.028-29.385 191.019-39.221c8.115-1.67 13.345-9.595 11.675-17.71-1.655-8.115-9.624-13.315-17.71-11.675l-205.675 42.231c-.011.002-.022-.002-.033 0s-.018.011-.029.013l-176.295 36.198c-8.115 1.67-13.345 9.595-11.675 17.71 1.644 8.038 9.505 13.339 17.71 11.675l161.627-33.188 6.026 29.383c-.941 13.733 6.561 62.435-27.614 119.132-28.037 46.509-74.619 79.468-127.808 90.381l-43.489 8.928c.69 7.141 1.677 14.284 3.162 21.409 4.966 23.91 28.693 39.468 52.998 34.468l5.623-1.155-8.666 32.408-50.307 10.203c-8.115 1.67-13.345 9.595-11.675 17.71 1.644 8.038 9.505 13.339 17.71 11.675l265.094-54.302c8.115-1.67 13.345-9.595 11.675-17.71-1.655-8.115-9.609-13.301-17.71-11.675l-79.074 16.236-25.313-32.203c38.648-17.975 71.334-46.234 94.34-81.497l.246-.457c13.507 22.113 33.892 47.188 57.298 70.611 17.137 17.15 34.857 32.396 51.878 44.799-3.05 1.975-5.936 4.303-8.627 6.994-20.817 20.817-20.793 53.453.054 74.3 12.844 12.845 29.183 16.842 49.447 16.841 14.516 0 31.048-2.052 49.739-4.373 7.761-.964 15.786-1.96 24.392-2.916 6.973-.775 12.478-6.279 13.252-13.252.957-8.606 1.953-16.632 2.917-24.393 5.559-44.786 9.577-77.142-12.469-99.187zm-400.012 65.849 8.666-32.408 20.306-4.169c6.603-1.355 12.825-3.638 19.199-5.565l21.828 27.77z"/></svg>