<svg id="Capa_1" enable-background="new 0 0 512 512" height="512" viewBox="0 0 512 512" width="512" xmlns="http://www.w3.org/2000/svg"><g><path d="m293.5 128.5c-16.315 0-22.402 17.063-23.146 19.359-1.836 6.441-7.651 10.886-14.354 10.886s-12.518-4.445-14.354-10.886c-.744-2.295-6.831-19.359-23.146-19.359-14.771 0-22.5 11.357-22.5 22.576 0 15.785 17.062 29.813 49.757 55.285 3.341 2.603 6.743 5.254 10.243 8.003 3.5-2.749 6.902-5.4 10.243-8.003 32.695-25.473 49.757-39.5 49.757-55.285 0-11.219-7.729-22.576-22.5-22.576z"/><path d="m256 0c-90.981 0-165 75.019-165 166 0 84.302 44.839 142.339 84.39 193.535 33.735 43.682 65.61 85.932 65.61 137.465 0 8.291 6.709 15 15 15s15-6.709 15-15c0-51.533 31.875-93.783 65.61-137.465 39.551-51.196 84.39-109.233 84.39-193.535 0-90.981-74.019-166-165-166zm28.682 230.026c-6.17 4.807-12.549 9.777-19.312 15.187-2.739 2.191-6.055 3.287-9.37 3.287s-6.631-1.096-9.37-3.287c-6.763-5.41-13.142-10.38-19.312-15.187-35.597-27.734-61.318-47.773-61.318-78.95 0-29.482 23.061-52.576 52.5-52.576 14.565 0 27.422 5.634 37.5 16.362 10.078-10.728 22.935-16.362 37.5-16.362 29.439 0 52.5 23.094 52.5 52.576 0 31.177-25.721 51.216-61.318 78.95z"/></g></svg>