<svg id="Capa_1" enable-background="new 0 0 512 512" height="512" viewBox="0 0 512 512" width="512" xmlns="http://www.w3.org/2000/svg"><g><g><path d="m293.5 293c-16.315 0-22.402 17.063-23.146 19.359-1.836 6.441-7.651 10.886-14.354 10.886s-12.518-4.445-14.354-10.886c-.744-2.296-6.831-19.359-23.146-19.359-14.771 0-22.5 11.357-22.5 22.576 0 15.785 17.062 29.813 49.757 55.285 3.341 2.603 6.743 5.254 10.243 8.003 3.5-2.749 6.902-5.4 10.243-8.003 32.695-25.473 49.757-39.5 49.757-55.285 0-11.219-7.729-22.576-22.5-22.576z"/><path d="m475.716 227.798-211-150c-5.215-3.721-12.217-3.721-17.432 0l-211 150c-3.94 2.812-6.284 7.353-6.284 12.202v257c0 8.291 6.709 15 15 15h422c8.291 0 15-6.709 15-15v-257c0-4.849-2.344-9.39-6.284-12.202zm-191.034 166.728c-6.17 4.807-12.549 9.777-19.312 15.187-2.739 2.191-6.055 3.287-9.37 3.287s-6.631-1.096-9.37-3.287c-6.763-5.41-13.142-10.38-19.312-15.187-35.597-27.734-61.318-47.773-61.318-78.95 0-29.482 23.061-52.576 52.5-52.576 14.565 0 27.422 5.634 37.5 16.362 10.078-10.728 22.935-16.362 37.5-16.362 29.439 0 52.5 23.094 52.5 52.576 0 31.177-25.721 51.216-61.318 78.95z"/></g><path d="m436 30h-60c-8.291 0-15 6.709-15 15v27.074l-96.284-69.283c-5.215-3.721-12.217-3.721-17.432 0l-241 172.698c-6.738 4.805-8.306 14.18-3.486 20.918 4.805 6.753 14.18 8.32 20.918 3.486l232.284-166.473 232.284 166.472c6.702 4.803 16.082 3.283 20.918-3.486 4.819-6.738 3.252-16.113-3.486-20.918l-54.716-38.651v-91.837c0-8.291-6.709-15-15-15z"/></g></svg>