<svg id="Capa_1" enable-background="new 0 0 512 512" height="512" viewBox="0 0 512 512" width="512" xmlns="http://www.w3.org/2000/svg"><g><path d="m421 346c0-84.302-44.839-142.339-84.39-193.535-33.736-43.682-65.61-85.932-65.61-137.465 0-8.291-6.709-15-15-15s-15 6.709-15 15c0 51.533-31.876 93.783-65.61 137.465-39.551 51.196-84.39 109.233-84.39 193.535 0 90.981 74.019 166 165 166s165-75.019 165-166zm-270-30c0-57.891 47.109-105 105-105s105 47.109 105 105-47.109 105-105 105-105-47.109-105-105z"/><path d="m331 316c0-41.353-33.647-75-75-75s-75 33.647-75 75 33.647 75 75 75 75-33.647 75-75zm-90 30v-15h-15c-8.291 0-15-6.709-15-15s6.709-15 15-15h15v-15c0-8.291 6.709-15 15-15s15 6.709 15 15v15h15c8.291 0 15 6.709 15 15s-6.709 15-15 15h-15v15c0 8.291-6.709 15-15 15s-15-6.709-15-15z"/></g></svg>