<svg id="Capa_1" enable-background="new 0 0 512 512" height="512" viewBox="0 0 512 512" width="512" xmlns="http://www.w3.org/2000/svg"><g id="Piggy_Bank"><path d="m330.488 500.607c12.401 7.31 27.976 11.143 45.512 11.143 8.284 0 15-6.716 15-15v-38.299c54.754-14.177 93.829-65.891 90.831-123.133-.61-11.641-3.018-22.974-7.084-33.721 22.792-13.189 37.253-37.57 37.253-64.847 0-8.284-6.716-15-15-15s-15 6.716-15 15c0 16.022-8.306 30.381-21.477 38.404-5.532-7.708-12.065-14.878-19.539-21.355-23.846-20.667-54.363-32.049-85.928-32.049h-14.74c-8.426 6.569-17.111 13.363-26.205 20.639-7.949 6.359-17.933 9.861-28.112 9.861s-20.163-3.502-28.112-9.861c-9.096-7.277-17.782-14.072-26.205-20.639h-22.19c-3.023-14.832-10.463-28.068-20.817-38.344-13.56-13.369-32.166-21.656-52.675-21.656-8.284 0-15 6.716-15 15v48.848c-31.122 8.088-58.384 28.58-74.518 56.152h-31.482c-8.284 0-15 6.716-15 15v90c0 8.284 6.716 15 15 15h31.462c16.322 28.121 43.597 48.97 74.538 57.128v37.872c0 8.284 6.716 15 15 15 20.438 0 38.211-5.206 51.401-15.055 11.488-8.578 18.946-20.146 22.011-33.945h93.177c3.065 13.8 10.523 25.367 22.011 33.945 1.872 1.398 3.836 2.703 5.888 3.912zm-209.488-188.857c-8.284 0-15-6.716-15-15s6.716-15 15-15 15 6.716 15 15-6.716 15-15 15zm255 0h-180c-8.284 0-15-6.716-15-15s6.716-15 15-15h180c8.284 0 15 6.716 15 15s-6.716 15-15 15z"/><g><path d="m286 222.25c-3.315 0-6.631-1.096-9.371-3.287-10.863-8.69-21.092-16.66-30.984-24.367-26.905-20.962-50.141-39.065-66.462-56.81-19.227-20.904-28.183-40.737-28.183-62.415 0-20.013 7.416-38.728 20.88-52.696 13.94-14.461 33.16-22.425 54.12-22.425 23.455 0 43.842 10.309 58.956 29.812.355.458.703.915 1.044 1.373.341-.458.688-.914 1.044-1.373 15.114-19.503 35.501-29.812 58.956-29.812 20.96 0 40.18 7.964 54.12 22.425 13.464 13.969 20.88 32.683 20.88 52.696 0 21.678-8.956 41.511-28.183 62.416-16.321 17.745-39.557 35.848-66.462 56.81-9.893 7.707-20.122 15.676-30.984 24.367-2.74 2.19-6.056 3.286-9.371 3.286z"/></g></g></svg>