<svg id="Capa_1" enable-background="new 0 0 512 512" height="512" viewBox="0 0 512 512" width="512" xmlns="http://www.w3.org/2000/svg"><g><path d="m506.59 394.288c-41.988-34.155-62.584-64.129-74.689-138.3-3.985-24.422-7.29-53.482-10.467-89.235-.48-5.4-.957-10.954-1.433-16.666-.3-3.898-2.1-7.799-5.101-10.199l-124.963-113.3c-7.707-6.987-14.847-14.553-22.115-21.995-3.059-3.133-7.428-4.845-11.822-4.549-4.394-.295-8.763 1.416-11.822 4.549-7.268 7.442-14.409 15.008-22.115 21.995l-124.963 113.301c-3.001 2.4-4.801 6.301-5.101 10.199-.476 5.713-.953 11.266-1.433 16.666-3.177 35.752-6.482 64.813-10.467 89.235-12.105 74.17-32.701 104.145-74.689 138.3-6.899 5.7-7.2 16.201-.899 22.2l91.989 91.041c5.109 5.109 13.215 5.971 19.142 1.838 16.427-11.451 31.575-24.141 45.216-37.913 30.57-27.249 52.352-55.6 67.118-82.3 9.316-16.846 14.024-35.852 14.024-55.102v-89.065c0-27.189-18.085-50.155-42.883-57.523-8.04-2.389-16.553 2.992-17.086 11.362-.021.328-.031.66-.031.995v130.82c0 8.159-6.372 15.1-14.527 15.339-8.623.253-15.473-6.435-15.473-14.993v-150c0-4.501 2.1-8.699 5.4-11.7 3.973-3.84 31.102-22.123 60.432-56.975 10.66-12.666 26.399-35.287 38.169-56.33 11.77 21.043 27.509 43.664 38.169 56.33 29.33 34.852 56.459 53.135 60.432 56.975 3.3 3.001 5.4 7.2 5.4 11.7v150c0 8.558-6.85 15.246-15.473 14.993-8.156-.239-14.527-7.18-14.527-15.339 0 0-.011-131.487-.031-131.815-.533-8.371-9.046-13.751-17.086-11.362-24.797 7.368-42.883 30.333-42.883 57.523v89.065c0 19.25 4.708 38.256 14.024 55.102 14.765 26.7 36.548 55.051 67.118 82.3 13.642 13.772 28.79 26.462 45.216 37.913 5.927 4.133 14.033 3.27 19.142-1.838l91.989-91.042c6.299-5.999 5.999-16.5-.901-22.2z"/></g></svg>