<svg id="Capa_1" enable-background="new 0 0 512 512" height="512" viewBox="0 0 512 512" width="512" xmlns="http://www.w3.org/2000/svg"><g id="Gift"><g><path d="m466 120h-121.195c-11.659 11.786-25.755 22.78-41.686 35.191-.703.548-1.41 1.099-2.119 1.652v83.157h165c8.284 0 15-6.716 15-15v-90c0-8.284-6.716-15-15-15z"/><path d="m211 156.843c-.709-.553-1.416-1.104-2.119-1.652-15.931-12.411-30.027-23.405-41.686-35.191h-121.195c-8.284 0-15 6.716-15 15v90c0 8.284 6.716 15 15 15h165z"/></g><g><path d="m61 275.572c0-3.591 0-5.572 0-5.572h150v242c-18.88 0-135 0-135 0-8.284 0-15-6.716-15-15 0 0 0-186.572 0-221.428z"/><path d="m451 275.572c0-3.591 0-5.572 0-5.572h-150v242h135c8.284 0 15-6.716 15-15 0 0 0-186.572 0-221.428z"/></g><path d="m271 512v-369.76c4.709-3.721 9.252-7.262 13.681-10.713 35.598-27.735 61.319-47.775 61.319-78.951 0-29.482-23.061-52.576-52.5-52.576-14.565 0-27.422 5.634-37.5 16.362-10.078-10.728-22.935-16.362-37.5-16.362-29.439 0-52.5 23.094-52.5 52.576 0 31.177 25.721 51.216 61.319 78.951 4.428 3.45 8.972 6.992 13.681 10.713v369.76zm-75-459.424c0-11.219 7.729-22.576 22.5-22.576 14.027 0 20.489 12.604 22.5 17.602v56.545c-29.584-23.153-45-36.573-45-51.571zm75 51.571v-56.545c2.011-4.998 8.473-17.602 22.5-17.602 14.771 0 22.5 11.357 22.5 22.576 0 14.998-15.416 28.418-45 51.571z"/></g></svg>