<svg id="Capa_1" enable-background="new 0 0 512 512" height="512" viewBox="0 0 512 512" width="512" xmlns="http://www.w3.org/2000/svg"><g><path d="m293.5 0c-14.565 0-27.422 5.634-37.5 16.362-10.078-10.728-22.935-16.362-37.5-16.362-29.439 0-52.5 23.094-52.5 52.576 0 31.177 25.721 51.216 61.318 78.951 6.17 4.807 12.549 9.777 19.312 15.187 2.739 2.191 6.055 3.287 9.37 3.287s6.631-1.096 9.37-3.287c6.763-5.41 13.142-10.38 19.312-15.187 35.597-27.735 61.318-47.774 61.318-78.951 0-29.482-23.061-52.576-52.5-52.576z"/><path d="m301 346c0-16.364-1.278-31.165-3.105-45h-83.789c-1.827 13.835-3.105 28.636-3.105 45s1.278 31.165 3.105 45h83.789c1.827-13.835 3.105-28.636 3.105-45z"/><path d="m256 482c11.863 0 27.089-23.214 36.445-61h-72.891c9.357 37.786 24.583 61 36.446 61z"/><path d="m109.215 271h79.678c11.14-50.482 33.896-90 67.106-90-63.963 0-119.415 36.658-146.784 90z"/><path d="m323.106 271h79.678c-27.369-53.342-82.82-90-146.785-90 33.211 0 55.967 39.518 67.107 90z"/><path d="m421 346c0-15.615-2.324-30.672-6.396-45h-86.36c1.827 14.78 2.756 29.978 2.756 45s-.928 30.22-2.756 45h86.36c4.072-14.328 6.396-29.385 6.396-45z"/><path d="m91 346c0 15.615 2.324 30.672 6.396 45h86.36c-1.827-14.78-2.756-29.978-2.756-45s.928-30.22 2.756-45h-86.36c-4.072 14.328-6.396 29.385-6.396 45z"/><path d="m256 512c-33.21 0-55.966-40.518-67.106-91h-79.678c27.368 53.342 82.82 91 146.784 91z"/><path d="m402.785 421h-79.678c-11.14 50.482-33.896 91-67.106 91 63.963 0 119.415-37.658 146.784-91z"/><path d="m256 211c-11.863 0-27.089 22.214-36.445 60h72.891c-9.357-37.786-24.583-60-36.446-60z"/></g></svg>