<svg id="Capa_1" enable-background="new 0 0 512.499 512.499" height="512" viewBox="0 0 512.499 512.499" width="512" xmlns="http://www.w3.org/2000/svg"><g><path d="m167.015 90.566c35.752-3.177 64.813-6.482 89.235-10.467 74.171-12.105 104.145-32.701 138.3-74.689 5.7-6.899 16.201-7.2 22.2-.899l91.041 91.989c5.109 5.109 5.971 13.215 1.838 19.142-11.451 16.427-24.141 31.575-37.913 45.216-27.249 30.57-55.6 52.352-82.3 67.118-16.846 9.316-35.852 14.024-55.103 14.024h-89.063c-27.225 0-50.215-18.133-57.552-42.98-2.365-8.011 3.067-16.465 11.403-16.989.324-.02.652-.031.983-.031h130.82c8.159 0 15.1-6.372 15.339-14.527.253-8.623-6.435-15.473-14.993-15.473h-150c-4.501 0-8.699 2.1-11.7 5.4-3.84 3.973-22.123 31.102-56.975 60.432-22.584 19.006-76.817 54.168-97.324 54.168-12.9 0-19.799-15.3-11.1-24.899l136-150c2.401-3.001 6.301-4.801 10.199-5.101 5.712-.477 11.265-.954 16.665-1.434z"/><path d="m345.484 421.933c-35.752 3.177-64.813 6.482-89.235 10.467-74.171 12.105-104.145 32.701-138.3 74.689-5.7 6.899-16.201 7.2-22.2.899l-91.041-91.989c-5.109-5.109-5.971-13.215-1.838-19.142 11.451-16.427 24.141-31.575 37.913-45.216 27.249-30.57 55.6-52.352 82.3-67.118 16.846-9.316 35.852-14.024 55.103-14.024h89.064c27.225 0 50.215 18.133 57.552 42.98 2.365 8.011-3.067 16.465-11.403 16.989-.324.02-.652.031-.983.031h-130.82c-8.159 0-15.1 6.372-15.339 14.527-.253 8.623 6.435 15.473 14.993 15.473h150c4.501 0 8.699-2.1 11.7-5.4 3.84-3.973 22.123-31.102 56.975-60.432 22.584-19.006 76.817-54.168 97.324-54.168 12.9 0 19.799 15.3 11.1 24.899l-136 150c-2.401 3.001-6.301 4.801-10.199 5.101-5.713.477-11.266.954-16.666 1.434z"/></g></svg>