<svg id="Capa_1" enable-background="new 0 0 511.999 511.999" height="512" viewBox="0 0 511.999 511.999" width="512" xmlns="http://www.w3.org/2000/svg"><g><g><g><path d="m345.244 421.433c-35.752 3.177-64.813 6.482-89.235 10.467-74.171 12.105-104.145 32.701-138.3 74.689-5.7 6.899-16.201 7.2-22.2.899l-91.041-91.989c-5.109-5.109-5.971-13.215-1.838-19.142 11.451-16.427 24.141-31.575 37.913-45.216 27.249-30.57 55.6-52.352 82.3-67.118 16.846-9.315 35.852-14.023 55.103-14.023h89.064c27.225 0 50.215 18.133 57.552 42.98 2.365 8.011-3.067 16.465-11.403 16.989-.324.02-.652.031-.983.031h-130.82c-8.159 0-15.1 6.372-15.339 14.527-.253 8.623 6.435 15.473 14.993 15.473h150c4.501 0 8.699-2.1 11.7-5.4 3.84-3.973 22.123-31.102 56.975-60.432 22.585-19.006 76.817-54.168 97.325-54.168 12.9 0 19.799 15.3 11.1 24.899l-136 150c-2.401 3.001-6.301 4.801-10.199 5.101-5.713.476-11.266.953-16.667 1.433z"/></g></g><path d="m151.01 41.091v153.909c0 5.771 3.311 11.016 8.496 13.521 5.215 2.505 11.382 1.802 15.878-1.802 36.851-29.502 87.481-30.533 125.626-3.768v-188.319c-46.368-23.406-102.301-18.9-144.376 14.74-3.559 2.856-5.624 7.163-5.624 11.719z"/><path d="m331.01 14.632v188.318c38.145-26.765 88.775-25.734 125.624 3.768 4.498 3.604 10.65 4.292 15.879 1.802 5.186-2.505 8.496-7.749 8.496-13.521v-153.908c0-4.556-2.065-8.862-5.626-11.719-42.072-33.64-98.005-38.146-144.373-14.74z"/></g></svg>