<svg id="Capa_1" enable-background="new 0 0 511.979 511.979" height="512" viewBox="0 0 511.979 511.979" width="512" xmlns="http://www.w3.org/2000/svg"><g><path d="m268.814 106.094c-29.238 29.238-29.238 76.831 0 106.069 29.24 29.24 76.831 29.236 106.069 0l31.815-31.818-106.066-106.066z"/><path d="m459.727 127.305c29.372-29.341 29.262-76.824 0-106.055-28.301-28.33-77.754-28.33-106.055 0l-31.827 31.82 106.062 106.062z"/><g><g><path d="m345.234 421.41c-35.752 3.177-64.813 6.482-89.235 10.467-74.171 12.105-104.145 32.701-138.3 74.689-5.7 6.899-16.201 7.2-22.2.899l-91.041-91.988c-5.109-5.109-5.971-13.215-1.838-19.142 11.451-16.427 24.141-31.575 37.913-45.216 27.249-30.57 55.6-52.352 82.3-67.118 16.846-9.316 35.852-14.024 55.103-14.024h89.064c27.225 0 50.215 18.133 57.552 42.98 2.365 8.011-3.067 16.465-11.403 16.989-.324.02-.652.031-.983.031h-130.82c-8.159 0-15.1 6.372-15.339 14.527-.253 8.623 6.435 15.473 14.993 15.473h150c4.501 0 8.699-2.1 11.7-5.4 3.84-3.973 22.123-31.102 56.975-60.432 22.584-19.006 76.817-54.168 97.324-54.168 12.9 0 19.799 15.3 11.1 24.899l-136 150c-2.401 3.001-6.301 4.801-10.199 5.101-5.712.476-11.265.953-16.666 1.433z"/></g></g></g></svg>