<svg id="Capa_1" enable-background="new 0 0 512.002 512.002" height="512" viewBox="0 0 512.002 512.002" width="512" xmlns="http://www.w3.org/2000/svg"><g><path d="m471.68 52.854c-25.664-6.826-51.943 3.867-65.288 26.514-1.963 3.325-4.043 6.563-6.226 9.712-37.104-6.445-66.259-36.943-69.203-75.234-.41-5.273-3.56-9.932-8.306-12.29-4.702-2.344-10.356-2.021-14.795.85-36.416 23.555-50.977 68.467-35.435 109.219 6.152 16.128 17.417 30.205 32.212 40.752-24.507 5.391-50.2 4.863-74.692-1.846-5.903-1.611-12.334.586-16.011 5.566-3.677 4.995-3.911 11.733-.586 16.963 27.144 42.642 73.652 67.354 122.52 67.354 70.355 0 132.197-50.367 144.364-120.41h16.772c4.014 0 7.866-2.109 10.679-4.98 2.827-2.856 4.365-7.236 4.307-11.25-.395-24.582-16.215-44.562-40.312-50.92z"/><g><g><path d="m345.242 421.436c-35.752 3.177-64.813 6.482-89.235 10.467-74.171 12.105-104.145 32.701-138.3 74.689-5.7 6.899-16.201 7.2-22.2.899l-91.041-91.989c-5.109-5.109-5.971-13.215-1.838-19.142 11.451-16.427 24.141-31.575 37.913-45.216 27.249-30.57 55.6-52.352 82.3-67.118 16.846-9.316 35.852-14.024 55.103-14.024h89.064c27.225 0 50.215 18.133 57.552 42.98 2.365 8.011-3.067 16.465-11.403 16.989-.324.02-.652.031-.983.031h-130.82c-8.159 0-15.1 6.372-15.339 14.527-.253 8.623 6.435 15.473 14.993 15.473h150c4.501 0 8.699-2.1 11.7-5.4 3.84-3.973 22.123-31.102 56.975-60.432 22.584-19.006 76.817-54.168 97.324-54.168 12.9 0 19.799 15.3 11.1 24.899l-136 150c-2.401 3.001-6.301 4.801-10.199 5.101-5.713.477-11.266.954-16.666 1.434z"/></g></g></g></svg>