<svg id="Capa_1" enable-background="new 0 0 511.999 511.999" height="512" viewBox="0 0 511.999 511.999" width="512" xmlns="http://www.w3.org/2000/svg"><g><path d="m243.939 203.906c4.922 6.665 14.297 8.101 20.977 3.164 6.343-4.688 36.504-27.422 65.947-57.612 29.575 30.176 59.897 52.939 66.255 57.627 6.72 4.92 16.084 3.452 20.977-3.193 4.907-6.68 3.472-16.069-3.193-20.977-14.78-10.869-40.356-31.816-63.75-55.781 23.13-27.568 41.777-58.579 41.777-86.909 0-15.03-8.042-40.225-61.919-40.225-54.229 0-62.329 25.576-62.329 40.811 0 28.066 18.662 58.901 41.821 86.353-23.276 23.979-48.691 44.897-63.398 55.767-6.666 4.921-8.086 14.31-3.165 20.975zm54.742-163.095c0-9.404 20.259-10.811 32.329-10.811 9.595 0 31.919.996 31.919 10.225 0 18.97-13.696 42.07-32.153 64.424-18.428-22.208-32.095-45.103-32.095-63.838z"/><g><g><path d="m345.244 421.433c-35.752 3.177-64.813 6.482-89.235 10.467-74.171 12.105-104.145 32.701-138.3 74.689-5.7 6.899-16.201 7.2-22.2.899l-91.041-91.989c-5.109-5.109-5.971-13.215-1.838-19.142 11.451-16.427 24.141-31.575 37.913-45.216 27.249-30.57 55.6-52.352 82.3-67.118 16.846-9.315 35.852-14.023 55.103-14.023h89.064c27.225 0 50.215 18.133 57.552 42.98 2.365 8.011-3.067 16.465-11.403 16.989-.324.02-.652.031-.983.031h-130.82c-8.159 0-15.1 6.372-15.339 14.527-.253 8.623 6.435 15.473 14.993 15.473h150c4.501 0 8.699-2.1 11.7-5.4 3.84-3.973 22.123-31.102 56.975-60.432 22.585-19.006 76.817-54.168 97.325-54.168 12.9 0 19.799 15.3 11.1 24.899l-136 150c-2.401 3.001-6.301 4.801-10.199 5.101-5.713.476-11.266.953-16.667 1.433z"/></g></g></g></svg>