<svg id="Capa_1" enable-background="new 0 0 511.7 511.7" height="512" viewBox="0 0 511.7 511.7" width="512" xmlns="http://www.w3.org/2000/svg"><g><path d="m330.85 105.11h-150c-16.569 0-30 13.431-30 30 0 16.567 13.431 30 30 30h150c16.569 0 30-13.433 30-30 0-16.569-13.431-30-30-30z"/><path d="m388.272 23.533c3.296-4.863 3.34-11.191.278-16.216-3.047-5.024-8.95-7.852-14.707-7.075-1.553.249-4.014.059-7.046-.044-16.729-.557-49.468-1.45-82.368 20.801-9.038-10.649-18.75-17.358-20.215-18.34-5.039-3.398-11.689-3.398-16.729 0-1.465.981-11.191 7.705-20.244 18.369-33.208-22.178-67.602-21.255-83.203-20.845-2.681.103-4.849.19-6.182.059-6.006-.835-11.66 1.948-14.766 6.973-3.105 5.039-2.974 11.426.352 16.333 5.55 8.171 38.078 19.502 51.962 52.114 1.822-.167 3.582-.551 5.446-.551h150c1.901 0 3.695.386 5.55.56 13.854-32.717 46.279-43.905 51.872-52.138z"/><g><path d="m293.35 308.61c-16.315 0-22.402 17.063-23.146 19.359-1.836 6.441-7.651 10.886-14.354 10.886s-12.518-4.445-14.354-10.886c-.744-2.295-6.831-19.359-23.146-19.359-14.771 0-22.5 11.357-22.5 22.576 0 15.785 17.062 29.813 49.757 55.285 3.341 2.603 6.743 5.254 10.243 8.003 3.5-2.749 6.902-5.4 10.243-8.003 32.695-25.473 49.757-39.5 49.757-55.285 0-11.219-7.729-22.576-22.5-22.576z"/><path d="m385.62 218.826c-11.311-9.41-22.293-18.567-31.97-28.271-7.039 2.904-14.724 4.556-22.8 4.556h-150c-8.077 0-15.762-1.652-22.8-4.556-9.677 9.705-20.66 18.862-31.97 28.271-37.236 30.996-79.453 67.138-79.453 132.777-.001 125.596 131.513 160.097 209.223 160.097s209.224-34.501 209.224-160.097c-.001-65.64-42.217-101.781-79.454-132.777zm-101.089 191.31c-6.17 4.807-12.549 9.777-19.312 15.187-2.739 2.191-6.055 3.287-9.37 3.287s-6.631-1.096-9.37-3.287c-6.763-5.41-13.142-10.38-19.312-15.187-35.598-27.735-61.318-47.774-61.318-78.951 0-29.482 23.061-52.576 52.5-52.576 14.565 0 27.422 5.634 37.5 16.362 10.078-10.728 22.935-16.362 37.5-16.362 29.439 0 52.5 23.094 52.5 52.576.001 31.178-25.72 51.216-61.318 78.951z"/></g></g></svg>