<svg id="Capa_1" enable-background="new 0 0 512 512" height="512" viewBox="0 0 512 512" width="512" xmlns="http://www.w3.org/2000/svg"><g><path d="m198.963 512h114.075c-25.792-31.924-45.005-68.489-57.037-107.822-12.033 39.333-31.246 75.898-57.038 107.822z"/><path d="m379.428 449.817c-32.593-5.42-62.622-20.801-86.455-44.634l-7.689-7.689c12.184 38.763 32.26 74.385 59.095 104.896z"/><path d="m132.572 449.817 35.048 52.573c26.836-30.511 46.912-66.132 59.095-104.896l-7.689 7.689c-23.832 23.834-53.861 39.214-86.454 44.634z"/><path d="m502.581 272.069c-7.013-3.913-132.567-41.834-231.581-171.334v-9.735h75c8.291 0 15-6.709 15-15v-61c0-8.291-6.709-15-15-15h-90c-8.291 0-15 6.709-15 15v85.736c-96.031 125.597-227.805 169.226-231.581 171.333-5.684 2.285-9.419 7.793-9.419 13.931v211c0 8.291 6.709 15 15 15h122.972l-44.452-66.68c-3.062-4.6-3.354-10.518-.747-15.396s7.69-7.924 13.227-7.924c34.688 0 67.295-13.506 91.816-38.027l47.578-47.578c2.919-2.919 6.799-4.213 10.605-4.182 4.025.031 7.967 1.544 10.605 4.182l47.578 47.578c24.523 24.521 57.131 38.027 91.818 38.027 5.537 0 10.62 3.047 13.228 7.925s2.314 10.796-.747 15.396l-44.453 66.679h122.972c8.291 0 15-6.709 15-15v-211c0-6.138-3.735-11.646-9.419-13.931zm-216.581-31.069h-15v15c0 8.291-6.709 15-15 15s-15-6.709-15-15v-15h-15c-8.291 0-15-6.709-15-15s6.709-15 15-15h15v-15c0-8.291 6.709-15 15-15s15 6.709 15 15v15h15c8.291 0 15 6.709 15 15s-6.709 15-15 15z"/></g></svg>