<svg id="Capa_1" enable-background="new 0 0 512 512" height="512" viewBox="0 0 512 512" width="512" xmlns="http://www.w3.org/2000/svg"><g><path d="m211.945 116.53c7.075 4.087 16.333 1.655 20.479-5.508 0 0 0 0 .015-.015 4.092-7.103 1.749-16.262-5.493-20.464-7.394-4.232-16.467-1.538-20.493 5.479-4.147 7.163-1.671 16.363 5.492 20.508z"/><path d="m280.368 207.995c7.214 4.135 16.348 1.668 20.493-5.493l45-77.944c4.146-7.178 1.685-16.348-5.493-20.493l-181.861-102.042c-7.178-4.16-16.362-1.699-20.493 5.493l-45 77.93c-4.146 7.178-1.685 16.348 5.493 20.493zm-99.903-126.973c12.464-21.584 39.97-28.868 61.479-16.465 21.442 12.382 28.943 39.857 16.465 61.465v.015c-12.409 21.46-39.99 28.85-61.465 16.465-21.503-12.422-28.886-40.005-16.479-61.48z"/><g><path d="m293.5 323.5c-16.315 0-22.402 17.063-23.146 19.359-1.836 6.441-7.651 10.886-14.354 10.886-6.702 0-12.518-4.445-14.354-10.886-.744-2.295-6.831-19.359-23.146-19.359-14.771 0-22.5 11.357-22.5 22.576 0 15.785 17.062 29.813 49.757 55.286 3.341 2.603 6.743 5.253 10.243 8.003 3.5-2.75 6.902-5.4 10.243-8.003 32.696-25.474 49.757-39.502 49.757-55.286 0-11.219-7.728-22.576-22.5-22.576z"/><path d="m466 120h-88.392c-.445 6.817-2.269 13.51-5.797 19.6l-40.641 70.4h44.83c8.291 0 15 6.709 15 15s-6.709 15-15 15h-240c-8.291 0-15-6.709-15-15s6.709-15 15-15h86.651l-138.829-77.9c-5.499-3.169-10.067-7.302-13.696-12.1h-24.126c-8.291 0-15 6.709-15 15v362c0 8.291 6.709 15 15 15h420c8.291 0 15-6.709 15-15v-362c0-8.291-6.709-15-15-15zm-181.318 305.026c-6.17 4.807-12.549 9.777-19.312 15.187-2.739 2.191-6.055 3.287-9.37 3.287s-6.631-1.096-9.37-3.287c-6.763-5.41-13.142-10.38-19.312-15.187-35.597-27.734-61.318-47.773-61.318-78.95 0-29.482 23.061-52.576 52.5-52.576 14.565 0 27.422 5.634 37.5 16.362 10.078-10.728 22.935-16.362 37.5-16.362 29.439 0 52.5 23.094 52.5 52.576 0 31.177-25.721 51.216-61.318 78.95z"/></g></g></svg>