<svg id="Capa_1" enable-background="new 0 0 512 512" height="512" viewBox="0 0 512 512" width="512" xmlns="http://www.w3.org/2000/svg"><g><path d="m91 512c8.291 0 15-6.709 15-15v-409.763c17.422-6.213 30-22.707 30-42.237 0-24.814-20.186-45-45-45s-45 20.186-45 45c0 19.53 12.578 36.024 30 42.237v409.763c0 8.291 6.709 15 15 15z"/><g><path d="m338.5 187.5c-16.315 0-22.402 17.063-23.146 19.359-1.836 6.441-7.651 10.886-14.354 10.886s-12.518-4.445-14.354-10.886c-.744-2.295-6.831-19.359-23.146-19.359-14.771 0-22.5 11.357-22.5 22.576 0 15.785 17.062 29.813 49.757 55.285 3.341 2.603 6.743 5.254 10.243 8.003 3.5-2.75 6.902-5.4 10.243-8.003 32.695-25.473 49.757-39.5 49.757-55.285 0-11.219-7.729-22.576-22.5-22.576z"/><path d="m446.254 90.776c-54.961 18.311-115.547 18.311-170.508 0-37.604-12.528-77.518-17.243-116.902-14.308-5.213 11.184-13.103 20.775-22.844 28.149v244.68c43.376-7.267 88.436-4.006 130.254 9.926 30.557 10.181 62.651 15.278 94.746 15.278s64.189-5.098 94.746-15.278c6.123-2.035 10.254-7.763 10.254-14.223v-240c0-10.391-10.254-17.459-19.746-14.224zm-116.572 198.25c-6.17 4.807-12.549 9.777-19.312 15.187-2.739 2.191-6.055 3.287-9.37 3.287s-6.631-1.096-9.37-3.287c-6.763-5.41-13.142-10.38-19.312-15.187-35.597-27.734-61.318-47.773-61.318-78.95 0-29.482 23.061-52.576 52.5-52.576 14.565 0 27.422 5.634 37.5 16.362 10.078-10.728 22.935-16.362 37.5-16.362 29.439 0 52.5 23.094 52.5 52.576 0 31.177-25.721 51.216-61.318 78.95z"/></g></g></svg>