<svg id="Capa_1" enable-background="new 0 0 512 512" height="512" viewBox="0 0 512 512" width="512" xmlns="http://www.w3.org/2000/svg"><g><circle cx="286" cy="376" r="45"/><path d="m213.15 358.905c6.486-27.594 28.162-49.27 55.756-55.756-5.571-18.526-22.587-32.149-42.906-32.149-24.814 0-45 20.186-45 45 0 20.319 13.623 37.335 32.15 42.905z"/><path d="m116.503 246.991c-16.45 21.929-25.503 49.102-25.503 76.509v143.5c0 24.814 20.186 45 45 45h240c24.814 0 45-20.186 45-45v-143.5c0-27.407-9.053-54.58-25.503-76.509-12.568-16.758-19.497-37.529-19.497-58.491v-7.5c8.291 0 15-6.709 15-15s-6.709-15-15-15h-240c-8.291 0-15 6.709-15 15s6.709 15 15 15v7.5c0 20.962-6.929 41.733-19.497 58.491zm109.497-5.991c36.689 0 67.18 26.525 73.621 61.379 34.854 6.441 61.379 36.932 61.379 73.621 0 41.353-33.647 75-75 75-36.689 0-67.18-26.525-73.621-61.379-34.854-6.441-61.379-36.932-61.379-73.621 0-41.353 33.647-75 75-75z"/><path d="m316 61c0-33.138-26.863-61-60-61s-60 27.862-60 61c0 33.137 26.863 60 60 60s60-26.863 60-60z"/></g></svg>