<svg id="Capa_1" enable-background="new 0 0 512 512" height="512" viewBox="0 0 512 512" width="512" xmlns="http://www.w3.org/2000/svg"><g><path d="m46 301h390v-60h-390c-16.569 0-30 13.431-30 30 0 16.567 13.431 30 30 30z"/><path d="m46 61h390v-46c0-8.286-6.716-15-15-15h-375c-16.569 0-30 14.431-30 31 0 16.567 13.431 30 30 30z"/><path d="m46 91v120h390c33.137 0 60-26.863 60-60 0-33.138-26.863-60-60-60zm330 75h-240c-8.291 0-15-6.709-15-15s6.709-15 15-15h240c8.291 0 15 6.709 15 15s-6.709 15-15 15z"/><path d="m160.258 510.846c5.61 2.344 12.056 1.04 16.348-3.252l34.394-34.394 34.395 34.395c4.325 4.323 10.814 5.561 16.348 3.252 5.61-2.314 9.258-7.793 9.258-13.857v-105.99h-120.001v105.989c0 6.064 3.647 11.543 9.258 13.857z"/><path d="m46 331v181h77.811c-1.686-4.761-2.811-9.75-2.811-15.015v-105.985h-15c-8.291 0-15-6.709-15-15s6.709-15 15-15h210c8.291 0 15 6.709 15 15s-6.709 15-15 15h-15v105.985c0 5.262-1.124 10.254-2.813 15.015h107.813c49.706 0 90-41.294 90-91s-40.294-90-90-90z"/></g></svg>