<svg id="Capa_1" enable-background="new 0 0 512.067 512.067" height="512" viewBox="0 0 512.067 512.067" width="512" xmlns="http://www.w3.org/2000/svg"><g><path d="m66.433 453.5c1.199 5.7 5.7 10.201 11.7 11.4l28.801 5.7-3.9 24c-.901 6 1.8 12.001 7.2 15.3s11.999 2.699 16.8-.901c28.5-22.2 79.799-60.298 129-106.8 14.795-13.925 52.207-52.083 60.3-64.199 50.4-61.501 107.699-141.801 107.699-220.701 0-43.436-22.581-78.512-65.4-98.699-15.919-7.24-24.589-7.196-27.599-8.701v35.401c5.517 104.835-16.349 149.665-75 227-5.191 6.052-16.824 25.241-60.3 65.7-34.799 32.098-77.1 65.099-123.6 100.199-4.8 3.3-7.2 9.3-5.701 15.301z"/><path d="m88.034 117.299c0 69.175 44.044 139.878 88.868 197.216 29.963-28.052 41.649-42.14 60.526-67.425-44.998-61.793-61.194-110.594-56.395-201.79v-35.401c-2.543 0-26.545 7.165-41.1 15.901-32.114 18.447-51.899 53.697-51.899 91.499z"/><path d="m445.634 453.5c1.5-6-.901-12.001-5.7-15.3-36.965-27.903-71.083-54.452-101.083-80.303-7.495 8.461-24.049 29.919-60.654 64.547 41.885 37.247 82.608 67.683 106.837 86.556 4.801 3.6 11.4 4.2 16.8.901s8.101-9.3 7.2-15.3l-3.9-24 28.801-5.7c5.999-1.201 10.499-5.701 11.699-11.401z"/><path d="m256.034 0c-16.961 0-34.783 1.549-45 2.792v42.501c-.95 18.224-.797 33.92-.002 48.488 10.949-2.212 25.334-3.781 45.002-3.781 19.986 0 34.374 1.624 45.059 3.792.756-14.156.91-29.343-.015-46.917l-.022-44.079c-10.502-1.285-28.182-2.796-45.022-2.796z"/></g></svg>