<svg id="Capa_1" enable-background="new 0 0 512.036 512.036" height="512" viewBox="0 0 512.036 512.036" width="512" xmlns="http://www.w3.org/2000/svg"><g><path d="m293.518 217.536c-16.315 0-22.402 17.063-23.146 19.359-1.836 6.441-7.652 10.886-14.354 10.886s-12.517-4.445-14.354-10.886c-.744-2.295-6.831-19.359-23.146-19.359-14.771 0-22.5 11.357-22.5 22.576 0 15.785 17.062 29.813 49.757 55.286 3.341 2.603 6.743 5.253 10.243 8.002 3.5-2.749 6.902-5.399 10.243-8.002 32.696-25.473 49.757-39.501 49.757-55.286 0-11.219-7.729-22.576-22.5-22.576z"/><path d="m510.434 188.328c-12.539-25.079-19.562-50.36-26.354-74.809-8.184-29.459-15.914-57.284-32.424-78.12-18.874-23.82-47.138-35.399-86.415-35.399-.029 0-31.041.012-49.227.016-8.283.002-14.997 6.737-14.997 15.02 0 24.813-20.187 45-45 45s-45-20.187-45-45c0-3.979-1.581-7.794-4.394-10.607s-6.628-4.394-10.607-4.393h-49.202c-39.261.001-67.563 11.692-86.523 35.742-16.531 20.968-24.312 48.871-32.55 78.413-6.774 24.293-13.778 49.413-26.14 74.136-2.887 5.775-1.755 12.749 2.81 17.314 18.972 18.972 44.553 30.916 71.607 33.739v-74.346c0-8.284 6.716-15 15-15s15 6.716 15 15v332c0 8.271 6.729 15 15 15h270c8.271 0 15-6.729 15-15v-332c0-8.284 6.716-15 15-15s15 6.716 15 15v74.346c27.053-2.824 52.635-14.767 71.607-33.739 4.565-4.564 5.697-11.538 2.809-17.313zm-225.736 130.735c-6.169 4.806-12.548 9.776-19.31 15.186-2.739 2.191-6.055 3.287-9.371 3.287s-6.631-1.096-9.371-3.287c-6.762-5.409-13.141-10.379-19.31-15.186-35.599-27.735-61.319-47.774-61.319-78.952 0-29.481 23.061-52.576 52.5-52.576 14.566 0 27.422 5.634 37.5 16.362 10.078-10.728 22.934-16.362 37.5-16.362 29.439 0 52.5 23.094 52.5 52.576.001 31.178-25.72 51.217-61.319 78.952z"/></g></svg>