<svg id="Capa_1" enable-background="new 0 0 512 512" height="512" viewBox="0 0 512 512" width="512" xmlns="http://www.w3.org/2000/svg"><g><path d="m497 331h-16v-105c0-124.072-100.928-226-225-226s-225 101.928-225 226v105h-16c-8.291 0-15 6.709-15 15s6.709 15 15 15h16.76c7.614 83.969 78.322 151 164.24 151h120c85.919 0 156.627-67.031 164.24-151h16.76c8.291 0 15-6.709 15-15s-6.709-15-15-15zm-46 0h-390v-105c0-107.52 87.48-196 195-196s195 88.48 195 196z"/><path d="m316 241c-4.618 0-9.069.637-13.391 1.63 5.784 17.992 6.777 38.15 2.291 58.37h71.1c0-33.091-26.909-60-60-60z"/><path d="m221.84 210.326c-21.861 0-36.29 12.614-40.84 14.897-4.475-2.245-18.994-14.897-40.84-14.897-40.893 0-66.328 44.535-52.079 90.674h185.837c14.404-46.639-11.632-90.674-52.078-90.674z"/><path d="m304.179 161.034c-5.01-7.603-11.66-13.916-19.731-18.735-18.53-11.118-44.634-10.547-62.827 1.406-1.974 1.304-3.582 2.924-5.352 4.407-6.985-11.093-9.067-24.673-4.946-37.542 2.534-7.881-1.816-16.333-9.712-18.853-7.808-2.505-16.333 1.831-18.853 9.712-8.104 25.289-1.901 52.267 15.425 72.017-1.353 3.745-2.391 7.615-3.001 11.605 8.763-2.791 17.673-4.726 26.658-4.726 26.091 0 50.12 11.79 66.85 34.698l7.271-1.652c7.031-1.595 13.579-2.371 20.039-2.371 49.629 0 90 40.371 90 90h20.323c1.324-5.35 2.203-10.86 2.543-16.523 2.754-45.602-29.335-86.959-75.439-94.043-21.079-3.267-39.038-13.99-49.248-29.4z"/></g></svg>