<svg id="Capa_1" enable-background="new 0 0 512 512" height="512" viewBox="0 0 512 512" width="512" xmlns="http://www.w3.org/2000/svg"><g><path d="m464.821 331c8.291 0 15-6.709 15-15v-90c0-41.353-33.647-75-75-75s-75 33.647-75 75v210c0 24.814-20.186 46-45 46h-75c-19.53 0-36.024-13.578-42.237-31h12.237c8.291 0 15-6.709 15-15v-15h15c54.053 0 87.642-32.783 87.642-85.547 0-25.532-6.182-40.166-11.631-53.057-4.966-11.777-9.258-21.929-9.258-41.396 0-19.966 4.673-33.384 9.609-47.607 5.288-15.19 11.279-33.417 11.279-58.451 0-45.439-24.624-70.415-73.242-74.385-3.852-42.788-26.22-60.557-74.399-60.557s-70.547 17.769-74.4 60.557c-48.618 3.97-73.242 28.945-73.242 74.385 0 25.034 5.991 43.261 11.279 58.451 4.937 14.224 9.609 27.642 9.609 47.607 0 19.453-4.292 29.619-9.258 41.367-5.449 12.905-11.631 27.51-11.631 53.057.001 52.778 33.59 85.576 87.643 85.576h15v15c0 8.291 6.709 15 15 15h16.518c6.969 34.191 37.266 61 73.482 61h75c41.353 0 75-34.647 75-76v-210c0-24.814 20.186-45 45-45s45 20.186 45 45v90c0 8.291 6.709 15 15 15zm-315-271c8.284 0 15 6.714 15 15 0 8.284-6.716 15-15 15s-15-6.716-15-15c0-8.286 6.716-15 15-15zm-53.145 301c-22.579 0-38.773-21.89-32.168-43.477.967-3.164 2.388-6.621 4.57-11.792 5.903-13.96 13.989-33.091 13.989-64.731 0-14.224-1.626-27.773-4.966-41.44-2.301-9.483 4.905-18.56 14.576-18.56h114.287c9.681 0 16.873 9.084 14.575 18.56-3.34 13.667-4.966 27.217-4.966 41.44 0 31.641 8.086 50.771 13.989 64.731 2.124 5.01 3.516 8.438 4.468 11.47 6.858 21.504-9.22 43.799-32.065 43.799z"/><path d="m479.821 367.621c0-8.291-6.709-15-15-15s-15 6.709-15 15c0 22.485-5.947 44.648-17.183 64.116l.029.015-.015.015-.015-.015c-.044.059-.073.117-.103.176-7.017 9.478-12.715 25.503-12.715 34.072 0 24.814 20.186 46 45 46s45-21.186 45-46c0-10.303-2.443-17.071-12.817-34.263-11.234-19.467-17.181-41.631-17.181-64.116z"/><path d="m206.437 326.283c-.747-2.358-1.875-4.995-3.501-8.877-6.123-14.458-16.362-38.687-16.362-76.406 0-10.225.718-20.156 2.183-30h-77.871c1.465 9.844 2.183 19.775 2.183 30 0 37.72-10.239 61.948-16.362 76.421-1.655 3.911-2.783 6.489-3.516 8.877-.705 2.271 1.013 4.702 3.486 4.702h106.289c2.517 0 4.202-2.466 3.471-4.717z"/></g></svg>