<svg id="Capa_1" enable-background="new 0 0 512 512" height="512" viewBox="0 0 512 512" width="512" xmlns="http://www.w3.org/2000/svg"><g><circle cx="121" cy="331" r="60"/><circle cx="406" cy="346" r="45"/><path d="m466 512c8.291 0 15-6.709 15-15v-31c0-41.353-33.647-75-75-75s-75 33.647-75 75v31c0 8.291 6.709 15 15 15z"/><path d="m31 497c0 8.291 6.709 15 15 15h120c8.291 0 15-6.709 15-15v-46h15c66.167 0 120-53.833 120-120v-60c0-10.957-6.2-20.151-15-25.388v-121.832c19.034 6.372 33.677 22.055 33.853 22.255 2.842 3.149 6.899 4.951 11.133 4.951h.044c4.248-.015 8.306-1.816 11.147-4.98.219-.25 23.115-25.006 48.823-25.006 25.854 0 48.633 24.785 48.853 25.034 4.204 4.6 10.767 6.152 16.538 3.94 5.771-2.226 9.609-7.778 9.609-13.974 0-71.909-91.128-136-195-136s-195 64.091-195 136c0 6.211 3.838 11.792 9.639 14.004 5.74 2.219 12.361.663 16.538-3.999.219-.249 23.115-25.005 48.823-25.005 25.854 0 48.633 24.785 48.853 25.034 2.842 3.149 6.899 4.951 11.133 4.951h.044c4.248-.015 8.306-1.816 11.147-4.98.176-.2 14.865-15.833 33.823-22.211v121.818c-8.8 5.237-15 14.431-15 25.388v60c0 33.091-26.909 60-60 60h-75c-49.629 0-90 41.371-90 91z"/></g></svg>