<svg id="Capa_1" enable-background="new 0 0 512 512" height="512" viewBox="0 0 512 512" width="512" xmlns="http://www.w3.org/2000/svg"><g><path d="m437.165 64.823c-4.724-17.617-19.127-30.346-37.463-32.802-19.475-2.628-37.553 7.053-46.265 24.576-10.204 20.525-31.244 33.403-54.166 33.403h-28.271v-2.763c17.422-6.213 30-22.707 30-42.237 0-24.814-20.186-45-45-45s-45 20.186-45 45c0 19.53 12.578 36.024 30 42.237v2.763h-28.271c-22.89 0-43.967-12.816-54.128-33.327-8.698-17.558-26.843-27.166-46.302-24.651-18.336 2.455-32.739 15.184-37.464 32.801-23.669 88.22-61.848 108.838-70.441 120.572-3.179 3.179-4.761 7.617-4.321 12.085.439 4.482 2.871 8.511 6.606 11.001.106.066.211.134.315.2 20.239 12.881 48.285 11.277 64.627-6.286 18.49-19.871 33.798-43.308 45.218-69.866 3.267-7.603 12.114-11.104 19.717-7.852 7.603 3.281 11.118 12.1 7.852 19.717-16.057 37.324-38.87 69.337-67.072 94.808 38.137 6.092 77.932-3.415 109.669-28.788 16.119-12.909 34.803-20.468 53.994-23.124v172.978c-52.33-3.563-90-24.857-90-44.268 0-13.96 19.761-29.063 49.16-37.559 7.969-2.3 12.554-10.62 10.254-18.574-2.3-7.969-10.605-12.48-18.574-10.254-44.355 12.832-70.839 37.647-70.839 66.387 0 28.178 25.496 51.553 64.709 64.378-15.163 9.736-26.583 22.491-31.677 37.443-9.185 26.982 2.769 56.737 32.813 79.867 6.52 5.047 15.99 3.852 21.035-2.725 5.054-6.563 3.838-15.981-2.725-21.035-13.799-10.635-28.945-28.144-22.72-46.439 6.039-17.754 30.007-31.692 58.564-35.42v104.931c0 8.291 6.709 15 15 15s15-6.709 15-15v-104.931c28.557 3.728 52.526 17.666 58.564 35.42 6.226 18.296-8.921 35.805-22.72 46.439-6.563 5.054-7.778 14.473-2.725 21.035 5.039 6.568 14.507 7.778 21.035 2.725 30.044-23.13 41.997-52.885 32.813-79.867-5.094-14.952-16.514-27.708-31.677-37.443 39.215-12.825 64.711-36.2 64.711-64.378 0-28.74-26.484-53.555-70.84-66.387-7.983-2.241-16.274 2.285-18.574 10.254-2.3 7.954 2.285 16.274 10.254 18.574 29.399 8.497 49.16 23.599 49.16 37.559 0 19.411-37.67 40.704-90 44.268v-172.975c19.191 2.661 37.875 10.223 53.994 23.121 25.649 20.522 56.616 30.894 87.7 30.894 7.225 0 14.443-.657 21.616-1.783-28.242-26.559-50.927-58.442-66.718-95.131-3.267-7.617.249-16.436 7.852-19.717 7.603-3.252 16.436.249 19.717 7.852 10.45 24.304 24.229 46.317 40.953 65.757 17.095 19.872 46.674 24.327 68.881 10.399.108-.068.216-.135.326-.203 3.735-2.49 6.167-6.519 6.606-11.001.439-4.468-1.143-8.906-4.321-12.085-7.851-10.722-46.995-33.182-70.441-120.573z"/></g></svg>