<svg id="Capa_1" enable-background="new 0 0 512 512" height="512" viewBox="0 0 512 512" width="512" xmlns="http://www.w3.org/2000/svg"><g><path d="m154.6 169.3c9.6 10.201 24 11.4 36 4.799 14.076-12.666 41.408-23.099 65.4-23.099 17.701 0 34.501 4.499 49.2 12.299 0-3.946 5.224-19.026 16.5-30.3 7.2-6.899 15.899-11.999 25.499-14.7-13.445-8.809-28.361-15.694-44.222-20.389 8.033-10.206 13.023-23.915 13.023-37.91 0-33.138-26.863-60-60-60s-60 26.862-60 60c0 14.006 4.997 27.724 13.041 37.934-20.519 6.242-37.163 14.231-53.242 28.165-13.431 12.265-12.308 32.092-1.199 43.201z"/><path d="m97.934 302.959c7.306 24.014 16.395 39.662 28.165 53.24 12.318 13.491 32.155 12.244 43.2 1.201 10.201-9.6 11.4-24.001 4.801-36-13.925-15.473-23.1-43.62-23.1-64.801 1.058-8.253-.846-25.226 12.299-49.499-7.903-2.64-17.69-4.189-30.298-16.8-6.901-7.2-12.001-15.901-14.702-25.501-8.809 13.445-15.692 28.361-20.387 44.224-10.206-8.033-22.915-13.023-36.912-13.023-33.137 0-61 26.862-61 60 0 33.137 27.863 60 61 60 14.006 0 26.724-4.997 36.934-13.041z"/><path d="m302.959 414.066c25.62-7.795 41.001-17.56 53.242-28.167 13.464-12.292 12.272-32.128 1.199-43.198-9.901-10.201-24.6-11.4-36.601-4.501-17.029 10.717-31.544 22.8-64.199 22.8-17.842 0-34.506-4.186-49.801-12.301 0 3.944-5.224 19.025-16.5 30.3-7.2 6.899-15.899 12.001-25.499 14.7 13.445 8.809 28.363 15.694 44.224 20.389-8.034 10.206-13.024 22.915-13.024 36.912 0 33.137 26.863 61 60 61s60-27.863 60-61c0-14.006-4.997-26.724-13.041-36.934z"/><path d="m451 196c-14.006 0-26.724 4.997-36.934 13.041-5.914-19.442-14.808-37.826-28.165-53.242-12.299-13.469-32.13-12.27-43.2-1.199-10.201 9.6-11.4 24-4.801 36 13.937 15.478 23.1 43.806 23.1 64.799v.601c0 17.699-4.501 34.2-12.599 48.9 11.4 2.399 22.2 8.099 30.599 16.8 6.901 7.2 12.001 15.899 14.702 25.499 8.809-13.445 15.692-28.363 20.387-44.224 10.205 8.035 22.914 13.025 36.911 13.025 33.137 0 61-26.863 61-60 0-33.138-27.863-60-61-60z"/></g></svg>