<svg id="Capa_1" enable-background="new 0 0 512 512" height="512" viewBox="0 0 512 512" width="512" xmlns="http://www.w3.org/2000/svg"><g><path d="m121 316c0 8.271 6.729 15 15 15h30c8.271 0 15-6.729 15-15v-15h-60z"/><path d="m136 361c-5.259 0-10.305-.915-15-2.58v47.58c0 8.271 6.729 15 15 15h30c8.271 0 15-6.729 15-15v-47.58c-4.695 1.665-9.741 2.58-15 2.58z"/><path d="m241 285.24c-4.709-3.721-9.252-7.263-13.681-10.713-35.598-27.735-61.319-47.775-61.319-78.951 0-29.482 23.061-52.576 52.5-52.576 8.089 0 15.648 1.744 22.5 5.127v-79.34l-64.394-64.393c-2.812-2.813-6.627-4.394-10.606-4.394h-60c-8.284 0-15 6.716-15 15v120c0 24.935-20.607 46-45 46-8.284 0-15 6.716-15 15v301c0 8.284 6.716 15 15 15h195zm-30 30.76v90c0 24.813-20.187 45-45 45h-30c-24.813 0-45-20.187-45-45v-120c0-8.284 6.716-15 15-15h90c8.284 0 15 6.716 15 15z"/><path d="m316 195.576c0-11.219-7.729-22.576-22.5-22.576-16.315 0-22.402 17.063-23.146 19.359-.002.008-.006.016-.008.024-.024.078-.051.154-.076.231-1.917 6.301-7.657 10.63-14.269 10.63s-12.353-4.33-14.269-10.63c-.025-.077-.052-.153-.076-.231-.002-.008-.006-.016-.008-.024-.746-2.296-6.833-19.359-23.148-19.359-14.771 0-22.5 11.357-22.5 22.576 0 15.785 17.062 29.813 49.757 55.286 3.341 2.603 6.743 5.253 10.243 8.003 3.5-2.75 6.902-5.4 10.243-8.003 32.695-25.474 49.757-39.502 49.757-55.286z"/><path d="m346 361c-5.259 0-10.305-.915-15-2.58v47.58c0 8.271 6.729 15 15 15h30c8.271 0 15-6.729 15-15v-47.58c-4.695 1.665-9.741 2.58-15 2.58z"/><path d="m466 181c-24.393 0-45-21.065-45-46v-120c0-8.284-6.716-15-15-15h-60c-3.979 0-7.794 1.581-10.606 4.394l-64.394 64.393v79.34c6.852-3.383 14.411-5.127 22.5-5.127 29.439 0 52.5 23.094 52.5 52.576 0 31.177-25.721 51.216-61.319 78.951-4.428 3.451-8.972 6.992-13.681 10.713v226.76h195c8.284 0 15-6.716 15-15v-301c0-8.284-6.716-15-15-15zm-45 135v90c0 24.813-20.187 45-45 45h-30c-24.813 0-45-20.187-45-45v-120c0-8.284 6.716-15 15-15h90c8.284 0 15 6.716 15 15z"/><path d="m331 316c0 8.271 6.729 15 15 15h30c8.271 0 15-6.729 15-15v-15h-60z"/></g></svg>