<svg id="Capa_1" enable-background="new 0 0 512.001 512.001" height="512" viewBox="0 0 512.001 512.001" width="512" xmlns="http://www.w3.org/2000/svg"><g><path d="m293.501 4.001c-14.565 0-27.422 5.634-37.5 16.362-10.078-10.728-22.935-16.362-37.5-16.362-29.439 0-52.5 23.094-52.5 52.576 0 31.177 25.721 51.216 61.318 78.951 6.17 4.807 12.549 9.777 19.312 15.187 2.739 2.191 6.055 3.287 9.37 3.287s6.631-1.096 9.37-3.287c6.763-5.41 13.142-10.38 19.312-15.187 35.598-27.735 61.318-47.774 61.318-78.951 0-29.482-23.061-52.576-52.5-52.576z"/><path d="m.806 281.706c1.523 4.424 5.01 7.896 9.448 9.36l166.498 50.156c6.363 2.142 13.453-.242 17.227-5.903l42.744-64.131c2.593-3.896 3.223-8.774 1.714-13.184-1.523-4.424-5.01-7.896-9.448-9.36l-166.498-50.156c-6.431-2.183-13.462.249-17.227 5.903l-42.744 64.131c-2.593 3.897-3.223 8.775-1.714 13.184z"/><path d="m511.195 281.706c1.509-4.409.879-9.287-1.714-13.184l-42.744-64.131c-3.765-5.654-10.796-8.086-17.227-5.903l-166.498 50.156c-4.438 1.465-7.925 4.937-9.448 9.36-1.509 4.409-.879 9.287 1.714 13.184l42.744 64.131c3.774 5.662 10.864 8.046 17.227 5.903l166.498-50.156c4.438-1.465 7.924-4.936 9.448-9.36z"/><path d="m241.001 318.867-22.061 33.094c-11.395 17.042-32.62 24.133-51.753 17.695l-107.187-32.17v99.708c0 6.46 4.131 12.188 10.254 14.224l170.746 56.581v-189.132z"/><path d="m452.001 437.195v-99.708l-108.051 32.448c-17.1 5.812-39.023-.231-50.874-17.944l-22.075-33.124v189.134l170.746-56.581c6.123-2.037 10.254-7.765 10.254-14.225z"/><path d="m327.295 139.922c-7.458 6.241-15.544 12.545-24.172 19.267-6.082 4.738-12.367 9.634-19.013 14.951-7.948 6.358-17.932 9.86-28.11 9.86-10.179 0-20.162-3.502-28.111-9.861-6.645-5.315-35.724-27.976-43.183-34.217l-101.473 33.528 154.457 46.485c7.079 2.327 13.273 6.202 18.279 11.16 4.917-4.924 10.93-8.729 17.639-10.94l155.125-46.716z"/></g></svg>