<svg id="Capa_1" enable-background="new 0 0 512 512" height="512" viewBox="0 0 512 512" width="512" xmlns="http://www.w3.org/2000/svg"><g><path d="m297.191 267.909c0-.015 0-.015 0-.015.103 0 2.3 3.105 3.809 3.105 1.553 0 3.853-3.325 4.292-4.175 7.031-15.322 22.822-25.957 39.053-25.957h3.311l1.772.322c16.479 1.274 31.099 11.514 37.764 26.719 0-.015 0-.015 0-.015.103 0 2.3 3.105 3.809 3.105 1.553 0 3.853-3.325 4.292-4.175 5.008-10.836 14.515-18.876 25.708-22.87v-167.953c0-41.353-33.647-76-75-76s-75 34.647-75 76v167.672c11.52 4.081 21.133 12.718 26.19 24.237zm23.204-187.514c5.859-5.859 15.352-5.859 21.211 0l30 30c5.859 5.859 5.859 15.352 0 21.211s-15.352 5.859-21.211 0l-30-30c-5.86-5.86-5.86-15.352 0-21.211zm0 75c5.859-5.859 15.352-5.859 21.211 0l30 30c5.859 5.859 5.859 15.352 0 21.211s-15.352 5.859-21.211 0l-30-30c-5.86-5.86-5.86-15.352 0-21.211z"/><path d="m439.179 271.41c-6.826-1.494-13.901 2.036-16.86 8.438-.396.864-9.976 21.152-31.319 21.152s-30.923-20.288-31.274-21.035c-2.373-5.405-7.72-8.848-13.623-8.906-5.376-1.201-11.323 3.428-13.784 8.789-.396.864-9.976 21.152-31.319 21.152s-30.923-20.288-31.274-21.035c-2.373-5.405-7.72-8.848-13.623-8.906-5.669-1.201-11.323 3.428-13.784 8.789-.396.864-9.976 21.152-31.319 21.152s-30.923-20.288-31.274-21.035c-2.373-5.405-7.72-8.848-13.623-8.906-5.962-1.201-11.323 3.428-13.784 8.789-.396.864-9.976 21.152-31.319 21.152s-30.923-20.288-31.274-21.035c-2.842-6.489-9.814-10.137-16.802-8.643-6.958 1.45-11.924 7.588-11.924 14.678v211c0 8.291 6.709 15 15 15h360c8.291 0 15-6.709 15-15v-211c0-7.046-4.937-13.081-11.821-14.59z"/><path d="m117.206 267.924c.103 0 2.285 3.076 3.794 3.076 1.553 0 3.853-3.325 4.292-4.175 7.148-15.571 22.5-25.957 38.906-25.957h2.988l1.816.293c16.655 1.128 31.465 11.411 38.188 26.748 0-.015 0-.015 0-.015.103 0 2.3 3.105 3.809 3.105 1.553 0 3.853-3.325 4.292-4.175 5.158-11.235 14.67-19.609 25.708-23.491v-167.333c0-41.353-33.647-76-75-76s-74.999 34.647-74.999 76v167.825c11.468 4.091 21.141 12.53 26.206 24.099zm23.189-187.529c5.859-5.859 15.352-5.859 21.211 0l30 30c5.859 5.859 5.859 15.352 0 21.211s-15.352 5.859-21.211 0l-30-30c-5.86-5.86-5.86-15.352 0-21.211zm0 75c5.859-5.859 15.352-5.859 21.211 0l30 30c5.859 5.859 5.859 15.352 0 21.211s-15.352 5.859-21.211 0l-30-30c-5.86-5.86-5.86-15.352 0-21.211z"/></g></svg>