<svg id="Capa_1" enable-background="new 0 0 512.003 512.003" height="512" viewBox="0 0 512.003 512.003" width="512" xmlns="http://www.w3.org/2000/svg"><g><path d="m422.003 149.997h-44.751l-176.915 60h160.666c0 16.538 13.462 30 30 30 18.776 0 32.258-16.948 31.146-30h.176c16.362.161 29.678 13.623 29.678 30v30c0 16.538 13.462 30 30 30s30-13.462 30-30v-30c0-49.629-40.371-90-90-90z"/><path d="m485.782 66.003c-2.651-7.822-11.133-12.012-19.028-9.39l-.044.015c-7.866 2.578-16.348-1.597-18.984-9.404-7.971-23.461-34.362-36.16-58.07-28.154l-127.839 43.351-4.818-14.202c-2.657-7.822 1.492-16.337 9.375-19.014h.015c7.837-2.666 12.041-11.177 9.39-19.028-2.651-7.822-11.162-12.012-19.028-9.39-.029.015-.059.015-.073.029l-113.57 38.512c-7.837 2.666-12.041 11.177-9.39 19.028 2.666 7.852 11.177 12.056 19.028 9.39 7.676-2.679 16.309 1.428 19.014 9.39l4.816 14.193-128.863 43.36c-23.496 7.998-36.123 33.604-28.14 57.085 2.673 7.868-1.549 16.333-9.331 18.999l-.059.015c-7.837 2.666-12.041 11.177-9.39 19.028 2.697 7.921 11.285 12.017 19.028 9.39l456.57-154.175c7.839-2.666 12.043-11.177 9.391-19.028z"/><path d="m422.003 269.997v-7.764c-8.774 4.995-19.984 7.764-31 7.764-22.163 0-41.558-12.085-51.943-30h-227.181l-81.876 27.429v138.571c0 57.891 48.109 106 106 106h240c57.891 0 106-48.109 106-106v-76c-33.091 0-60-26.909-60-60zm-136 90h-60c-24.814 0-45-20.186-45-45 0-8.291 6.709-15 15-15s15 6.709 15 15c0 8.276 6.724 15 15 15h60c8.276 0 15-6.724 15-15 0-8.291 6.709-15 15-15s15 6.709 15 15c0 24.814-20.185 45-45 45z"/></g></svg>