<svg id="Capa_1" enable-background="new 0 0 512 512" height="512" viewBox="0 0 512 512" width="512" xmlns="http://www.w3.org/2000/svg"><g><path d="m274.256 51.903c-5.859-5.859-15.352-5.859-21.211 0s-5.859 15.352 0 21.211l53.035 53.035-31.734 31.734c-5.859 5.859-5.859 15.352 0 21.211l106.069 106.069c5.859 5.859 15.352 5.859 21.211 0l16.374-16.741v91.069c0 8.291 6.709 15 15 15s15-6.709 15-15v-91.055l38.395 38.027c5.859 5.859 15.352 5.859 21.211 0s5.859-15.352 0-21.211c-57.538-57.536-175.804-175.804-233.35-233.349z"/><path d="m166 404.491h30v60h-30z"/><path d="m227 464.491h120c8.291 0 15-6.709 15-15v-45h-135z"/><path d="m0 449.491c0 8.291 6.709 15 15 15h121v-60h-136z"/><circle cx="181" cy="284.491" r="15"/><path d="m253.133 200.307c-1.798-1.798-3.331-3.785-4.779-5.815h-233.354c-8.284 0-15 6.714-15 15v165h362v-65.815c-.921-.786-1.932-1.434-2.798-2.3zm-162.133 99.184c-8.284 0-15-6.716-15-15 0-8.286 6.716-15 15-15s15 6.714 15 15c0 8.284-6.716 15-15 15zm90 30c-24.814 0-45-20.186-45-45s20.186-45 45-45 46 20.186 46 45-21.186 45-46 45zm91-30c-8.284 0-15-6.716-15-15 0-8.286 6.716-15 15-15s15 6.714 15 15c0 8.284-6.716 15-15 15z"/></g></svg>