<svg id="Capa_1" enable-background="new 0 0 512 512" height="512" viewBox="0 0 512 512" width="512" xmlns="http://www.w3.org/2000/svg"><g><path d="m346 241c36.226 0 66.519-25.811 73.491-60h-146.982c6.972 34.189 37.265 60 73.491 60z"/><path d="m346 0c-90.981 0-165 75.019-165 166s74.019 165 165 165 166-74.019 166-165-75.019-166-166-166zm30 91h30c8.291 0 15 6.709 15 15s-6.709 15-15 15h-30c-8.291 0-15-6.709-15-15s6.709-15 15-15zm-90 0h30c8.291 0 15 6.709 15 15s-6.709 15-15 15h-30c-8.291 0-15-6.709-15-15s6.709-15 15-15zm60 180c-57.891 0-105-47.109-105-105 0-8.291 6.709-15 15-15h180c8.291 0 15 6.709 15 15 0 57.891-47.109 105-105 105z"/><path d="m106 301c-57.891 0-106 47.109-106 105s48.109 106 106 106 105-48.109 105-106-47.109-105-105-105zm30 150c-8.291 0-15-6.709-15-15 0-8.276-6.724-15-15-15s-15 6.724-15 15c0 8.291-6.709 15-15 15s-15-6.709-15-15c0-24.814 20.186-45 45-45s45 20.186 45 45c0 8.291-6.709 15-15 15z"/><path d="m316 361c-8.291 0-15 6.709-15 15 0 24.814-20.186 45-45 45-8.291 0-15 6.709-15 15s6.709 15 15 15c41.353 0 75-33.647 75-75 0-8.291-6.709-15-15-15z"/><path d="m61 256c0 8.291 6.709 15 15 15s15-6.709 15-15c0-24.814 20.186-45 45-45 8.291 0 15-6.709 15-15s-6.709-15-15-15c-41.353 0-75 33.647-75 75z"/></g></svg>